<svg width="27" height="26" viewBox="0 0 27 26" fill="none" xmlns="http://www.w3.org/2000/svg">
<g clip-path="url(#clip0_133_66)">
<path d="M24.5109 15.3436L24.7827 15.8695L24.5109 15.3447V15.3436ZM23.5418 15.5244L23.4827 14.937L23.465 14.9382L23.4449 14.9417L23.5418 15.5244ZM23.5418 15.5244L23.6009 16.1129L23.621 16.1106L23.6399 16.107L23.5418 15.5244ZM18.7673 22.0031L19.1419 21.5457L19.136 21.5422L18.7673 22.0031ZM18.7673 22.0031L18.3926 22.4605L18.3986 22.4652L18.7673 22.0031ZM10.9897 24.1777L11.5145 23.907L10.9886 24.1788L10.9897 24.1777ZM7.89928 22.0031L7.52465 21.5469L7.51638 21.554L7.50692 21.5623L7.89928 22.0031ZM7.89928 22.0031L8.27392 22.4617L8.28338 22.4534L8.29165 22.4463L7.89928 22.0031ZM1.59901 14.729L1.04829 14.9465L1.59783 14.729H1.59901ZM1.59901 11.271L1.04829 11.0536L1.59783 11.271H1.59901ZM2.15447 10.6565L1.88383 10.1306L2.15565 10.6553L2.15447 10.6565ZM3.12356 10.4756V9.88474H3.09519L3.06565 9.8871L3.12356 10.4756ZM3.12356 10.4756V11.0666H3.1531L3.18265 11.063L3.12356 10.4756ZM10.4603 4.50983L9.98874 4.15174L10.4591 4.50983H10.4603ZM16.4438 2.73119C16.4261 2.51691 16.4013 2.30328 16.3694 2.09065C16.3423 1.9025 16.2857 1.71982 16.2016 1.54937L15.1509 2.09183C15.1627 2.11547 15.1828 2.16274 15.2029 2.28565C15.2254 2.41565 15.2419 2.58465 15.2691 2.84819L16.445 2.73001L16.4438 2.73119ZM16.6755 4.15292C16.6613 4.13519 16.6187 4.0631 16.5726 3.81019C16.5177 3.45211 16.4763 3.09223 16.4462 2.73119L15.2691 2.84819C15.3164 3.3221 15.3554 3.71447 15.4097 4.01938C15.4629 4.31719 15.5456 4.62092 15.7359 4.87028L16.6755 4.15292ZM17.2238 4.37983C17.1205 4.39373 17.0154 4.38006 16.9191 4.34021C16.8228 4.30036 16.7387 4.23574 16.6755 4.15292L15.7347 4.8691C15.9245 5.11797 16.1768 5.31217 16.466 5.43194C16.7551 5.55171 17.0708 5.59279 17.381 5.55101L17.2238 4.37983ZM18.3915 3.53719C18.0074 3.85274 17.745 4.06665 17.5382 4.20965C17.3266 4.35619 17.2451 4.37628 17.2238 4.37983L17.381 5.55101C17.6906 5.50965 17.9636 5.35365 18.213 5.17992C18.4671 5.00265 18.7708 4.75447 19.1407 4.45192L18.3915 3.53719ZM19.3984 2.87419C19.2093 2.93447 19.0497 3.03019 18.8985 3.13774C18.7519 3.24174 18.5853 3.37883 18.3915 3.53719L19.1407 4.45192C19.3452 4.2841 19.4776 4.17656 19.5839 4.10092C19.6367 4.05837 19.6957 4.0241 19.7588 3.99928L19.3984 2.87419ZM20.6428 2.93565C20.2491 2.76526 19.807 2.74342 19.3984 2.87419L19.7588 3.99928C19.8948 3.95624 20.0417 3.96379 20.1725 4.02056L20.6428 2.93565ZM21.5788 3.69674C21.4016 3.51947 21.2491 3.36583 21.1144 3.24765C20.9746 3.11947 20.8155 3.01417 20.6428 2.93565L20.1725 4.02056C20.1973 4.03119 20.2422 4.05601 20.3367 4.13874C20.4348 4.22383 20.5554 4.34438 20.7433 4.53228L21.5788 3.69674ZM22.6342 4.7521L21.5788 3.69674L20.7433 4.53228L21.7986 5.58765L22.6342 4.7521ZM23.3953 5.6881C23.3163 5.51542 23.2107 5.35629 23.0821 5.21656C22.9639 5.08183 22.8103 4.92938 22.6342 4.7521L21.7986 5.58765C21.9866 5.77556 22.1059 5.8961 22.1934 5.99419C22.2761 6.08874 22.2997 6.13365 22.3104 6.15847L23.3953 5.6881ZM23.4567 6.93256C23.5875 6.52397 23.5657 6.08182 23.3953 5.6881L22.3104 6.15847C22.3668 6.28941 22.3739 6.43631 22.3305 6.5721L23.4567 6.93256ZM22.7937 7.93947C22.9521 7.74565 23.0892 7.57901 23.1932 7.43247C23.2996 7.28119 23.3965 7.12165 23.4567 6.93256L22.3305 6.5721C22.306 6.63516 22.2722 6.69413 22.23 6.74701C22.1174 6.89819 22.0004 7.04598 21.879 7.19019L22.7937 7.93947ZM21.9511 9.1071C21.9546 9.08583 21.9747 9.00428 22.1213 8.79274C22.2643 8.58592 22.4782 8.32356 22.7937 7.93947L21.879 7.19019C21.5765 7.5601 21.3271 7.86383 21.151 8.11792C20.9773 8.3661 20.8213 8.64028 20.7799 8.94992L21.9511 9.1071ZM22.178 9.65547C22.0952 9.59219 22.0306 9.50814 21.9907 9.41184C21.9509 9.31553 21.9372 9.2104 21.9511 9.1071L20.7799 8.94992C20.7384 9.25991 20.7795 9.57538 20.8993 9.86431C21.0191 10.1532 21.2131 10.4053 21.4618 10.595L22.178 9.65547ZM23.5997 9.88592C23.1046 9.83628 22.7689 9.80319 22.5207 9.75828C22.2678 9.71219 22.1957 9.66965 22.178 9.65547L21.4618 10.595C21.71 10.7841 22.0137 10.8668 22.3127 10.9212C22.6165 10.9756 23.0076 11.0157 23.4827 11.063L23.5997 9.88592ZM24.7816 10.1294C24.6111 10.0452 24.4284 9.9886 24.2403 9.96156C24.063 9.93201 23.8479 9.91074 23.5997 9.88592L23.4816 11.0618C23.7463 11.089 23.9153 11.1056 24.0453 11.128C24.1121 11.1355 24.1775 11.1531 24.2391 11.18L24.7816 10.1282V10.1294ZM25.6171 11.0524C25.4593 10.6538 25.1625 10.3259 24.7816 10.1294L24.2391 11.18C24.3662 11.2453 24.4652 11.3545 24.518 11.4873L25.6171 11.0524ZM25.7412 12.2519C25.7412 12.0026 25.7412 11.7863 25.7294 11.6066C25.7214 11.4171 25.6835 11.2301 25.6171 11.0524L24.518 11.4873C24.5275 11.5121 24.5416 11.5617 24.5499 11.6858C24.5591 11.8748 24.5623 12.064 24.5594 12.2531H25.7412V12.2519ZM25.7412 13.7457V12.2519H24.5594V13.7457H25.7412ZM25.6171 14.9441C25.6904 14.7597 25.7176 14.5754 25.7294 14.3898C25.7412 14.2114 25.7412 13.9951 25.7412 13.7457H24.5594C24.5594 14.0105 24.5594 14.1806 24.5499 14.3118C24.5493 14.3792 24.5386 14.4462 24.518 14.5104L25.6171 14.9441ZM24.7816 15.8683C25.1627 15.6715 25.4596 15.3431 25.6171 14.9441L24.518 14.5104C24.4652 14.6431 24.3662 14.7523 24.2391 14.8176L24.7827 15.8695L24.7816 15.8683ZM23.5997 16.1117C23.8479 16.0869 24.0642 16.0645 24.2403 16.0349C24.4235 16.0054 24.6043 15.9593 24.7804 15.8695L24.2391 14.8176C24.1775 14.8446 24.1121 14.8622 24.0453 14.8696C23.9153 14.8921 23.7463 14.9086 23.4827 14.9358L23.6009 16.1129L23.5997 16.1117ZM22.1792 16.3422C22.1969 16.328 22.269 16.2843 22.5219 16.2394C22.7701 16.1945 23.1057 16.1602 23.5997 16.1117L23.4827 14.9358C23.0088 14.9831 22.6165 15.0209 22.3116 15.0765C22.0137 15.1296 21.7112 15.2124 21.4618 15.4015L22.1792 16.3422ZM21.9511 16.8906C21.9373 16.7872 21.9512 16.682 21.9913 16.5856C22.0313 16.4893 22.0962 16.4053 22.1792 16.3422L21.4618 15.4015C21.213 15.5913 21.0188 15.8435 20.899 16.1327C20.7792 16.4219 20.7381 16.7376 20.7799 17.0477L21.9511 16.8906ZM22.7937 18.0582C22.5599 17.7816 22.3356 17.497 22.1213 17.2049C21.9747 16.9946 21.9546 16.9118 21.9511 16.8906L20.7811 17.0489C20.8225 17.3586 20.9785 17.6304 21.151 17.8797C21.3283 18.1326 21.5765 18.4376 21.879 18.8063L22.7937 18.0582ZM23.4567 19.0651C23.3958 18.8853 23.3068 18.7161 23.1932 18.564C23.0654 18.3913 22.9321 18.2226 22.7937 18.0582L21.879 18.8063C22.0468 19.0119 22.1544 19.1431 22.23 19.2506C22.272 19.3032 22.3059 19.3618 22.3305 19.4244L23.4567 19.0651ZM23.3953 20.3096C23.5657 19.9158 23.5875 19.4737 23.4567 19.0651L22.3305 19.4244C22.3742 19.5605 22.367 19.7079 22.3104 19.8392L23.3953 20.3096ZM22.6354 21.2444C22.8115 21.0683 22.9639 20.9158 23.0821 20.7811C23.205 20.6405 23.3161 20.4927 23.3953 20.3096L22.3104 19.8392C22.2794 19.8992 22.2396 19.9542 22.1922 20.0023C22.0651 20.1417 21.9339 20.2773 21.7986 20.4088L22.6354 21.2444ZM21.5788 22.3009L22.6354 21.2444L21.7986 20.4088L20.7433 21.4654L21.5788 22.3009ZM20.6428 23.0608C20.8248 22.9816 20.9737 22.8717 21.1144 22.7488C21.2491 22.6306 21.4016 22.477 21.5788 22.2997L20.7433 21.4654C20.5554 21.6533 20.4348 21.7726 20.3367 21.8589C20.2883 21.9064 20.2329 21.9462 20.1725 21.9771L20.6428 23.0608ZM19.3984 23.1235C19.8071 23.2539 20.2493 23.2316 20.6428 23.0608L20.1725 21.9771C20.0415 22.0335 19.8946 22.0406 19.7588 21.9972L19.3984 23.1235ZM18.3915 22.4593C18.5853 22.6176 18.7519 22.7547 18.8985 22.8587C19.0497 22.9663 19.2093 23.0632 19.3984 23.1235L19.7588 21.9972C19.6958 21.9728 19.6368 21.9389 19.5839 21.8967C19.4327 21.7838 19.2849 21.6663 19.1407 21.5446L18.3915 22.4593ZM17.2238 21.6178C17.2451 21.6202 17.3278 21.6415 17.5382 21.788C17.745 21.931 18.0074 22.1449 18.3915 22.4593L19.1407 21.5446C18.7708 21.2432 18.4671 20.9938 18.213 20.8166C17.9648 20.644 17.6906 20.488 17.381 20.4466L17.2238 21.6178ZM16.6755 21.8447C16.7387 21.7619 16.8228 21.6973 16.9191 21.6575C17.0154 21.6176 17.1205 21.6039 17.2238 21.6178L17.381 20.4466C17.0711 20.405 16.7557 20.446 16.4668 20.5655C16.1779 20.6851 15.9257 20.8789 15.7359 21.1274L16.6755 21.8447ZM16.445 23.2665C16.4946 22.7713 16.5277 22.4356 16.5726 22.1875C16.6187 21.9346 16.6613 21.8625 16.6755 21.8447L15.7359 21.1274C15.5468 21.3756 15.4641 21.6805 15.4097 21.9783C15.3554 22.282 15.3152 22.6732 15.2679 23.1483L16.445 23.2665ZM16.2016 24.4483C16.2926 24.271 16.3375 24.0902 16.3682 23.907C16.3989 23.7297 16.4202 23.5147 16.445 23.2665L15.2679 23.1483C15.2515 23.3368 15.2306 23.5248 15.2029 23.712C15.1954 23.7789 15.1779 23.8442 15.1509 23.9058L16.2027 24.4483H16.2016ZM15.2786 25.2838C15.6771 25.1261 16.005 24.8292 16.2016 24.4483L15.1509 23.9058C15.0856 24.0329 14.9764 24.132 14.8436 24.1847L15.2786 25.2838ZM14.079 25.4079C14.3284 25.4079 14.5446 25.4079 14.7243 25.3961C14.9086 25.3843 15.0942 25.3571 15.2786 25.2838L14.8436 24.1847C14.7794 24.2053 14.7125 24.2161 14.6451 24.2166C14.5151 24.2261 14.3437 24.2261 14.0778 24.2261L14.079 25.4079ZM12.5852 25.4079H14.079L14.0778 24.2261H12.5852V25.4079ZM11.3856 25.2838C11.5712 25.3571 11.7556 25.3843 11.9411 25.3961C12.1196 25.4079 12.3358 25.4079 12.5852 25.4079V24.2261C12.3205 24.2261 12.1503 24.2261 12.0191 24.2166C11.9517 24.216 11.8848 24.2053 11.8206 24.1847L11.3856 25.2838ZM10.4626 24.4483C10.6592 24.8292 10.9871 25.1261 11.3856 25.2838L11.8206 24.1847C11.6878 24.132 11.5786 24.0329 11.5133 23.9058L10.4615 24.4483H10.4626ZM10.2192 23.2665C10.244 23.5147 10.2665 23.7309 10.2948 23.907C10.3256 24.0902 10.3716 24.271 10.4626 24.4483L11.5133 23.9058C11.4863 23.8442 11.4688 23.7789 11.4613 23.712C11.4336 23.5252 11.4115 23.3376 11.3951 23.1495L10.2192 23.2665ZM9.98874 21.8447C10.0029 21.8625 10.0455 21.9346 10.0916 22.1875C10.1365 22.4356 10.1696 22.7725 10.2192 23.2665L11.3951 23.1495C11.3478 22.6756 11.3088 22.2832 11.2545 21.9783C11.2013 21.6805 11.1186 21.3767 10.9283 21.1274L9.98874 21.8447ZM9.44038 21.6178C9.54367 21.6039 9.6488 21.6176 9.74511 21.6575C9.84141 21.6973 9.92547 21.7619 9.98874 21.8447L10.9283 21.1274C10.7386 20.8787 10.4865 20.6858 10.1976 20.566C9.90865 20.4463 9.59318 20.4051 9.28319 20.4466L9.44038 21.6178ZM8.27274 22.4605C8.65683 22.1449 8.91919 21.931 9.12601 21.788C9.33756 21.6415 9.4191 21.6202 9.44038 21.6178L9.28319 20.4466C8.97356 20.488 8.70056 20.644 8.45119 20.8177C8.1971 20.9938 7.89338 21.2432 7.52347 21.5457L8.27274 22.4605ZM7.26583 23.1235C7.45492 23.0632 7.61447 22.9675 7.76574 22.8599C7.91228 22.7559 8.07892 22.6188 8.27274 22.4605L7.52347 21.5457C7.37925 21.6671 7.23146 21.7842 7.08029 21.8967C7.02743 21.9389 6.96844 21.9728 6.90538 21.9972L7.26583 23.1235ZM6.02138 23.0632C6.41509 23.2336 6.85724 23.2542 7.26583 23.1235L6.90538 21.9972C6.76959 22.0406 6.62268 22.0335 6.49174 21.9771L6.02138 23.0632ZM5.08538 22.3009C5.26265 22.4782 5.4151 22.6318 5.54983 22.75C5.68929 22.8717 5.83938 22.984 6.02138 23.0632L6.49174 21.9771C6.4313 21.9463 6.3759 21.9064 6.32747 21.8589C6.18809 21.7318 6.05252 21.6005 5.92092 21.4654L5.08538 22.3009ZM4.03001 21.2456L5.08538 22.3009L5.92092 21.4654L4.86556 20.41L4.03001 21.2456ZM3.26892 20.3096C3.3481 20.4916 3.45919 20.6405 3.5821 20.7811C3.70029 20.9158 3.85392 21.0683 4.03001 21.2456L4.86556 20.41C4.72999 20.2784 4.59835 20.1429 4.47083 20.0035C4.42335 19.955 4.3835 19.8996 4.35265 19.8392L3.26892 20.3096ZM3.20747 19.0651C3.0767 19.4737 3.09853 19.9158 3.26892 20.3096L4.35265 19.8392C4.29589 19.7084 4.28951 19.5615 4.33256 19.4256L3.20747 19.0651ZM3.87047 18.0582C3.7121 18.252 3.57501 18.4186 3.47101 18.5652C3.35747 18.717 3.26854 18.8857 3.20747 19.0651L4.33256 19.4256C4.35737 19.3624 4.39164 19.3035 4.43419 19.2506C4.50983 19.1443 4.61738 19.0119 4.78519 18.8075L3.87047 18.0582ZM4.7131 16.8906C4.70956 16.9118 4.68947 16.9934 4.54292 17.2049C4.39874 17.4117 4.18601 17.6741 3.87047 18.0582L4.78519 18.8075C5.08774 18.4376 5.3371 18.1338 5.51319 17.8797C5.68692 17.6316 5.84292 17.3574 5.88428 17.0477L4.7131 16.8906ZM4.48619 16.3422C4.56902 16.4055 4.63363 16.4895 4.67348 16.5858C4.71333 16.6821 4.727 16.7873 4.7131 16.8906L5.88428 17.0477C5.92607 16.7376 5.88498 16.4219 5.76521 16.1327C5.64544 15.8435 5.45125 15.5913 5.20238 15.4015L4.48619 16.3422ZM3.06447 16.1129C3.55965 16.1614 3.89529 16.1945 4.14347 16.2394C4.39638 16.2855 4.46847 16.328 4.48619 16.3422L5.20238 15.4015C4.95419 15.2124 4.65047 15.1296 4.35147 15.0765C4.04774 15.0221 3.65656 14.9819 3.18147 14.9346L3.06329 16.1117L3.06447 16.1129ZM1.88265 15.8683C2.05992 15.9593 2.24074 16.0042 2.42392 16.0349C2.60119 16.0656 2.8151 16.0881 3.06447 16.1129L3.18265 14.9358C2.99412 14.9194 2.80612 14.8974 2.61892 14.8696C2.55207 14.8621 2.48674 14.8446 2.4251 14.8176L1.88265 15.8695V15.8683ZM1.0471 14.9441C1.20462 15.3431 1.50149 15.6715 1.88265 15.8683L2.4251 14.8176C2.29804 14.7523 2.19896 14.6431 2.14619 14.5104L1.0471 14.9441ZM0.924194 13.7481C0.924194 13.9975 0.924194 14.2137 0.936013 14.3934C0.943661 14.5826 0.981566 14.7693 1.04829 14.9465L2.14738 14.5127C2.12683 14.4485 2.11607 14.3816 2.11547 14.3142C2.10668 14.1252 2.10353 13.9361 2.10601 13.7469H0.924194V13.7481ZM0.924194 12.2543V13.7481H2.10601V12.2543H0.924194ZM1.04829 11.0547C0.981824 11.2328 0.943932 11.4203 0.936013 11.6102C0.924194 11.7886 0.924194 12.0049 0.924194 12.2543H2.10601C2.10601 11.9896 2.10601 11.8194 2.11547 11.6882C2.11604 11.6208 2.1268 11.5538 2.14738 11.4896L1.04829 11.0547ZM1.88383 10.1317C1.50288 10.3283 1.20605 10.6562 1.04829 11.0547L2.14738 11.4896C2.20014 11.3569 2.29923 11.2477 2.42629 11.1824L1.88383 10.1306V10.1317ZM3.06565 9.8871C2.81747 9.91192 2.60119 9.93556 2.4251 9.96392C2.23696 9.99097 2.05428 10.0476 1.88383 10.1317L2.42629 11.1824C2.44992 11.1706 2.49719 11.1505 2.6201 11.1304C2.7501 11.1079 2.9191 11.0914 3.18265 11.0642L3.06447 9.88828L3.06565 9.8871ZM4.48738 9.65783C4.46965 9.67201 4.39756 9.71456 4.14465 9.76065C3.89647 9.80556 3.56083 9.83747 3.06565 9.8871L3.18265 11.0642C3.65656 11.0169 4.0501 10.9779 4.35383 10.9236C4.65283 10.8704 4.95656 10.7876 5.20474 10.5974L4.48738 9.65783ZM4.71428 9.10947C4.72818 9.21276 4.71451 9.31789 4.67466 9.4142C4.63481 9.5105 4.5702 9.59456 4.48738 9.65783L5.20474 10.5974C5.45321 10.4076 5.64705 10.1554 5.7666 9.86648C5.88615 9.57757 5.92716 9.26099 5.88547 8.9511L4.71547 9.10947H4.71428ZM3.87165 7.94065C4.18719 8.32592 4.4011 8.58828 4.54529 8.7951C4.69183 9.00665 4.71074 9.08819 4.71428 9.10947L5.88547 8.9511C5.8441 8.64147 5.6881 8.36965 5.51438 8.12028C5.33828 7.86619 5.08892 7.56247 4.78638 7.19256L3.87165 7.94065ZM3.20865 6.93374C3.26774 7.12283 3.36465 7.28356 3.47219 7.43483C3.57619 7.58019 3.71328 7.74801 3.87165 7.94065L4.78638 7.19256C4.66499 7.04795 4.54794 6.89976 4.43538 6.74819C4.39293 6.69574 4.35866 6.63717 4.33374 6.57447L3.20865 6.93374ZM3.2701 5.69047C3.10001 6.08384 3.07817 6.52551 3.20865 6.93374L4.33374 6.57447C4.29069 6.43854 4.29825 6.29163 4.35501 6.16083L3.2701 5.69047ZM4.03119 4.75447C3.85392 4.93056 3.70029 5.08301 3.5821 5.21892C3.45394 5.35871 3.34865 5.51785 3.2701 5.69047L4.35501 6.16083C4.38595 6.10081 4.42579 6.04464 4.47319 5.99656C4.5998 5.85669 4.73106 5.7211 4.86674 5.59001L4.03119 4.75447ZM5.08656 3.69792L4.03119 4.75447L4.86674 5.59001L5.9221 4.53347L5.08656 3.69792ZM6.02256 2.93801C5.84999 3.01664 5.69086 3.12193 5.55101 3.25001C5.41629 3.36819 5.26265 3.52065 5.08656 3.69792L5.9221 4.53347C6.11001 4.34674 6.23056 4.22619 6.32865 4.13992C6.42319 4.05719 6.4681 4.03356 6.49292 4.02174L6.02256 2.93801ZM7.26701 2.87538C6.85828 2.74498 6.41613 2.76723 6.02256 2.93801L6.49292 4.02174C6.62372 3.96498 6.77063 3.9586 6.90656 4.00165L7.26701 2.87538ZM8.27392 3.53956C8.0801 3.38119 7.91347 3.2441 7.76692 3.1401C7.61526 3.0261 7.44654 2.93675 7.26701 2.87538L6.90656 4.00165C6.9696 4.0261 7.02858 4.05997 7.08147 4.1021C7.18783 4.17892 7.32019 4.28647 7.52583 4.45428L8.27392 3.53956ZM9.44156 4.38219C9.42028 4.37865 9.33874 4.35856 9.12719 4.21201C8.83511 3.99735 8.55051 3.77385 8.27392 3.53956L7.52583 4.45428C7.89456 4.75683 8.19947 5.00619 8.45238 5.18228C8.70056 5.35483 8.97474 5.51083 9.28438 5.55337L9.44156 4.38219ZM9.98992 4.1541C9.92678 4.23714 9.84279 4.30198 9.74648 4.34205C9.65016 4.38211 9.54496 4.39596 9.44156 4.38219L9.28438 5.55337C9.59445 5.59529 9.91009 5.55321 10.1992 5.43364C10.4884 5.31408 10.7407 5.12012 10.9306 4.87147L9.98992 4.1541ZM10.2204 2.73356C10.1707 3.22756 10.1376 3.56437 10.0927 3.81137C10.0466 4.06428 10.0041 4.13637 9.98992 4.1541L10.9306 4.87147C11.1197 4.62328 11.2025 4.31956 11.2556 4.02056C11.31 3.71683 11.3502 3.32565 11.3975 2.85056L10.2204 2.73356ZM10.4638 1.55174C10.3728 1.72901 10.3267 1.90983 10.296 2.09301C10.2665 2.27028 10.2452 2.48419 10.2204 2.73356L11.3963 2.85174C11.4127 2.66321 11.4347 2.47521 11.4625 2.28801C11.4699 2.22115 11.4875 2.1558 11.5145 2.09419L10.4626 1.55292L10.4638 1.55174ZM11.388 0.716193C10.9888 0.874007 10.6604 1.17013 10.4638 1.55174L11.5145 2.09419C11.5798 1.96713 11.689 1.86805 11.8217 1.81528L11.388 0.716193ZM12.5864 0.592102C12.337 0.592102 12.1207 0.592102 11.9411 0.60392C11.7519 0.611569 11.5652 0.649473 11.388 0.716193L11.8217 1.81528C11.8859 1.7947 11.9529 1.78395 12.0203 1.78337C12.1503 1.77392 12.3216 1.77392 12.5876 1.77392V0.592102H12.5864ZM14.0802 0.592102H12.5864V1.77392H14.0802V0.592102ZM15.2786 0.716193C15.1012 0.649956 14.9146 0.612067 14.7255 0.60392C14.5458 0.592102 14.3296 0.592102 14.0802 0.592102V1.77392C14.3449 1.77392 14.5151 1.77392 14.6463 1.78337C14.7137 1.78433 14.7805 1.79508 14.8448 1.81528L15.2786 0.716193ZM16.2027 1.55174C16.0059 1.17058 15.6776 0.873714 15.2786 0.716193L14.8448 1.81528C14.9776 1.86805 15.0868 1.96713 15.1521 2.09419L16.2027 1.55174ZM17.4696 13C17.4696 14.097 17.0339 15.1491 16.2581 15.9249C15.4824 16.7006 14.4303 17.1364 13.3333 17.1364V18.3182C14.7438 18.3182 16.0965 17.7579 17.0938 16.7605C18.0912 15.7632 18.6515 14.4105 18.6515 13H17.4696ZM13.3333 8.86365C14.4303 8.86365 15.4824 9.29944 16.2581 10.0752C17.0339 10.8509 17.4696 11.903 17.4696 13H18.6515C18.6515 11.5895 18.0912 10.2368 17.0938 9.23949C16.0965 8.24214 14.7438 7.68183 13.3333 7.68183V8.86365ZM9.19692 13C9.19692 11.903 9.63272 10.8509 10.4084 10.0752C11.1842 9.29944 12.2363 8.86365 13.3333 8.86365V7.68183C11.9228 7.68183 10.5701 8.24214 9.57276 9.23949C8.57541 10.2368 8.0151 11.5895 8.0151 13H9.19692ZM13.3333 17.1364C12.2363 17.1364 11.1842 16.7006 10.4084 15.9249C9.63272 15.1491 9.19692 14.097 9.19692 13H8.0151C8.0151 14.4105 8.57541 15.7632 9.57276 16.7605C10.5701 17.7579 11.9228 18.3182 13.3333 18.3182V17.1364Z" fill="currentColor"/>
</g>
<defs>
<clipPath id="clip0_133_66">
<rect width="26" height="26" fill="currentColor" transform="translate(0.333252)"/>
</clipPath>
</defs>
</svg>
