<svg width="27" height="25" viewBox="0 0 27 25" fill="none" xmlns="http://www.w3.org/2000/svg">
<g clip-path="url(#clip0_0_614)">
<path d="M16.8 12.8C16.8 12.5613 16.7052 12.3324 16.5364 12.1636C16.3676 11.9948 16.1387 11.9 15.9 11.9H9.9C9.6613 11.9 9.43239 11.9948 9.2636 12.1636C9.09482 12.3324 9 12.5613 9 12.8V13.4C9 14.6 10.6596 15.5 12.9 15.5C15.1404 15.5 16.8 14.6 16.8 13.4V12.8ZM15 8.594C15 7.436 14.0604 6.5 12.9 6.5C11.7396 6.5 10.8 7.4348 10.8 8.594C10.8 9.15096 11.0212 9.6851 11.4151 10.0789C11.8089 10.4728 12.343 10.694 12.9 10.694C13.457 10.694 13.9911 10.4728 14.3849 10.0789C14.7788 9.6851 15 9.15096 15 8.594ZM3 3.5C3 2.70435 3.31607 1.94129 3.87868 1.37868C4.44129 0.816071 5.20435 0.5 6 0.5H19.8C20.194 0.5 20.5841 0.577597 20.948 0.728361C21.312 0.879126 21.6427 1.1001 21.9213 1.37868C22.1999 1.65726 22.4209 1.98797 22.5716 2.35195C22.7224 2.71593 22.8 3.10603 22.8 3.5V20.6C22.8 20.8387 22.7052 21.0676 22.5364 21.2364C22.3676 21.4052 22.1387 21.5 21.9 21.5H4.8C4.8 21.8183 4.92643 22.1235 5.15147 22.3485C5.37652 22.5736 5.68174 22.7 6 22.7H21.9C22.1387 22.7 22.3676 22.7948 22.5364 22.9636C22.7052 23.1324 22.8 23.3613 22.8 23.6C22.8 23.8387 22.7052 24.0676 22.5364 24.2364C22.3676 24.4052 22.1387 24.5 21.9 24.5H6C5.20435 24.5 4.44129 24.1839 3.87868 23.6213C3.31607 23.0587 3 22.2957 3 21.5V3.5ZM4.8 3.5V19.7H21V3.5C21 3.18174 20.8736 2.87652 20.6485 2.65147C20.4235 2.42643 20.1183 2.3 19.8 2.3H6C5.68174 2.3 5.37652 2.42643 5.15147 2.65147C4.92643 2.87652 4.8 3.18174 4.8 3.5Z" fill="white"/>
</g>
<defs>
<clipPath id="clip0_0_614">
<rect width="20.4" height="24" fill="white" transform="translate(3 0.5)"/>
</clipPath>
</defs>
</svg>
