<svg width="27" height="25" viewBox="0 0 27 25" fill="none" xmlns="http://www.w3.org/2000/svg">
<g clip-path="url(#clip0_0_602)">
<path fill-rule="evenodd" clip-rule="evenodd" d="M11.7571 0.77272H14.0611C16.0662 0.77272 17.6545 0.77272 18.8971 0.939629C20.1756 1.11199 21.2109 1.47417 22.028 2.29017C22.1725 2.44527 22.2512 2.65042 22.2474 2.86238C22.2437 3.07435 22.1578 3.27658 22.0079 3.42649C21.858 3.57639 21.6558 3.66226 21.4438 3.666C21.2319 3.66974 21.0267 3.59106 20.8716 3.44654C20.4091 2.98617 19.7763 2.70908 18.6789 2.56181C17.5585 2.41127 16.0803 2.40908 14 2.40908H11.8182C9.7378 2.40908 8.26071 2.41127 7.13816 2.56181C6.0418 2.70908 5.40907 2.98617 4.94761 3.44763C4.48616 3.90908 4.20907 4.54181 4.0618 5.63927C3.91125 6.76072 3.90907 8.23781 3.90907 10.3182V14.6818C3.90907 16.7622 3.91125 18.2404 4.0618 19.3618C4.20907 20.4582 4.48616 21.0909 4.94761 21.5524C5.40907 22.0138 6.0418 22.2909 7.13925 22.4382C8.26071 22.5887 9.7378 22.5909 11.8182 22.5909H14C16.0803 22.5909 17.5585 22.5887 18.68 22.4382C19.7763 22.2909 20.4091 22.0138 20.8705 21.5524C21.6298 20.7931 21.86 19.6138 21.8993 16.8516C21.9024 16.6346 21.9917 16.4278 22.1474 16.2766C22.3031 16.1254 22.5124 16.0423 22.7294 16.0454C22.9464 16.0486 23.1533 16.1379 23.3045 16.2936C23.4557 16.4493 23.5388 16.6586 23.5356 16.8756C23.4974 19.5233 23.3262 21.4116 22.028 22.7098C21.2109 23.5258 20.1756 23.888 18.8971 24.0604C17.6534 24.2273 16.0662 24.2273 14.0611 24.2273H11.7571C9.75198 24.2273 8.16362 24.2273 6.92107 24.0604C5.64252 23.888 4.60725 23.5258 3.79016 22.7098C2.97416 21.8927 2.61198 20.8574 2.43961 19.5789C2.27271 18.3353 2.27271 16.748 2.27271 14.7429V10.2571C2.27271 8.25199 2.27271 6.66363 2.43961 5.42108C2.61198 4.14254 2.97416 3.10727 3.79016 2.29017C4.60725 1.47417 5.64252 1.11199 6.92107 0.939629C8.16471 0.77272 9.75198 0.77272 11.7571 0.77272ZM19.5789 7.09563C19.8516 6.81016 20.1786 6.58206 20.5407 6.42475C20.9028 6.26743 21.2927 6.18407 21.6875 6.17956C22.0822 6.17504 22.4739 6.24947 22.8395 6.39847C23.2051 6.54746 23.5373 6.76802 23.8164 7.04718C24.0956 7.32634 24.3161 7.65848 24.4651 8.02408C24.6141 8.38969 24.6886 8.78138 24.6841 9.17615C24.6795 9.57092 24.5962 9.9608 24.4389 10.3229C24.2815 10.685 24.0535 11.012 23.768 11.2847L18.5818 16.4742C18.366 16.7015 18.1365 16.9153 17.8945 17.1145C17.6436 17.3109 17.3709 17.4789 17.0829 17.6164C16.8385 17.7331 16.5811 17.8182 16.2036 17.9436L13.9302 18.7018C13.684 18.7842 13.4197 18.7963 13.167 18.7368C12.9144 18.6773 12.6833 18.5485 12.4997 18.365C12.3162 18.1814 12.1874 17.9503 12.1279 17.6977C12.0684 17.445 12.0805 17.1807 12.1629 16.9345L12.9058 14.7091L12.9211 14.6622C13.0476 14.2836 13.1327 14.0273 13.2494 13.7829C13.3868 13.4949 13.555 13.2228 13.7513 12.9713C13.9182 12.7574 14.1091 12.5665 14.3916 12.284L14.4254 12.2502L19.5789 7.09563ZM22.6116 8.25199C22.4884 8.12876 22.3422 8.031 22.1812 7.96431C22.0202 7.89761 21.8477 7.86328 21.6734 7.86328C21.4992 7.86328 21.3267 7.89761 21.1657 7.96431C21.0047 8.031 20.8584 8.12876 20.7353 8.25199L20.5367 8.45054C20.5476 8.48654 20.5596 8.5269 20.5738 8.56727C20.6763 8.86181 20.8716 9.25454 21.2403 9.62327C21.5667 9.95164 21.9698 10.1935 22.4131 10.3269L22.6116 10.1284C22.7348 10.0052 22.8326 9.85891 22.8993 9.69793C22.966 9.53696 23.0003 9.36442 23.0003 9.19017C23.0003 9.01593 22.966 8.84339 22.8993 8.68242C22.8326 8.52144 22.7348 8.37518 22.6116 8.25199ZM21.1629 11.5771C20.7647 11.3677 20.4006 11.0992 20.0829 10.7807C19.7644 10.463 19.4959 10.0989 19.2865 9.70072L15.5818 13.4054C15.2534 13.7338 15.1378 13.8516 15.0407 13.976C14.9174 14.1342 14.8116 14.3054 14.7254 14.4854C14.6578 14.6284 14.6043 14.7844 14.4571 15.2251L14.0207 16.5342L14.3294 16.8429L15.6385 16.4065C16.0793 16.2593 16.2353 16.2058 16.3782 16.1382C16.5582 16.0509 16.7294 15.9462 16.8876 15.8229C17.012 15.7258 17.1298 15.6102 17.4582 15.2818L21.1629 11.5771ZM7.72725 9.22727C7.72725 9.01027 7.81345 8.80216 7.96689 8.64872C8.12033 8.49529 8.32844 8.40908 8.54543 8.40908H15.6363C15.8533 8.40908 16.0614 8.49529 16.2149 8.64872C16.3683 8.80216 16.4545 9.01027 16.4545 9.22727C16.4545 9.44426 16.3683 9.65237 16.2149 9.80581C16.0614 9.95925 15.8533 10.0454 15.6363 10.0454H8.54543C8.32844 10.0454 8.12033 9.95925 7.96689 9.80581C7.81345 9.65237 7.72725 9.44426 7.72725 9.22727ZM7.72725 13.5909C7.72725 13.3739 7.81345 13.1658 7.96689 13.0124C8.12033 12.8589 8.32844 12.7727 8.54543 12.7727H11.2727C11.4897 12.7727 11.6978 12.8589 11.8512 13.0124C12.0047 13.1658 12.0909 13.3739 12.0909 13.5909C12.0909 13.8079 12.0047 14.016 11.8512 14.1694C11.6978 14.3229 11.4897 14.4091 11.2727 14.4091H8.54543C8.32844 14.4091 8.12033 14.3229 7.96689 14.1694C7.81345 14.016 7.72725 13.8079 7.72725 13.5909ZM7.72725 17.9545C7.72725 17.7375 7.81345 17.5294 7.96689 17.376C8.12033 17.2226 8.32844 17.1364 8.54543 17.1364H10.1818C10.3988 17.1364 10.6069 17.2226 10.7603 17.376C10.9138 17.5294 11 17.7375 11 17.9545C11 18.1715 10.9138 18.3796 10.7603 18.5331C10.6069 18.6865 10.3988 18.7727 10.1818 18.7727H8.54543C8.32844 18.7727 8.12033 18.6865 7.96689 18.5331C7.81345 18.3796 7.72725 18.1715 7.72725 17.9545Z" fill="white"/>
</g>
<defs>
<clipPath id="clip0_0_602">
<rect width="22.9091" height="24" fill="white" transform="translate(2 0.5)"/>
</clipPath>
</defs>
</svg>
