<svg width="27" height="25" viewBox="0 0 27 25" fill="none" xmlns="http://www.w3.org/2000/svg">
<g clip-path="url(#clip0_0_581)">
<path d="M11.6 13.78H2.64C2.256 13.78 2 14.036 2 14.42V23.38C2 23.764 2.256 24.02 2.64 24.02H11.6C11.984 24.02 12.24 23.764 12.24 23.38V14.42C12.24 14.036 11.984 13.78 11.6 13.78ZM10.96 22.74H3.28V15.06H10.96V22.74ZM11.6 0.980011H2.64C2.256 0.980011 2 1.23601 2 1.62001V10.58C2 10.964 2.256 11.22 2.64 11.22H11.6C11.984 11.22 12.24 10.964 12.24 10.58V1.62001C12.24 1.23601 11.984 0.980011 11.6 0.980011ZM10.96 9.94001H3.28V2.26001H10.96V9.94001ZM24.4 0.980011H15.44C15.056 0.980011 14.8 1.23601 14.8 1.62001V10.58C14.8 10.964 15.056 11.22 15.44 11.22H24.4C24.784 11.22 25.04 10.964 25.04 10.58V1.62001C25.04 1.23601 24.784 0.980011 24.4 0.980011ZM23.76 9.94001H16.08V2.26001H23.76V9.94001ZM24.4 18.26H20.56V14.42C20.56 14.036 20.304 13.78 19.92 13.78C19.536 13.78 19.28 14.036 19.28 14.42V18.26H15.44C15.056 18.26 14.8 18.516 14.8 18.9C14.8 19.284 15.056 19.54 15.44 19.54H19.28V23.38C19.28 23.764 19.536 24.02 19.92 24.02C20.304 24.02 20.56 23.764 20.56 23.38V19.54H24.4C24.784 19.54 25.04 19.284 25.04 18.9C25.04 18.516 24.784 18.26 24.4 18.26Z" fill="white"/>
</g>
<defs>
<clipPath id="clip0_0_581">
<rect width="23.04" height="24" fill="white" transform="translate(2 0.5)"/>
</clipPath>
</defs>
</svg>
