<svg width="27" height="25" viewBox="0 0 27 25" fill="none" xmlns="http://www.w3.org/2000/svg">
<g clip-path="url(#clip0_0_619)">
<path d="M1.20001 16.1V8.9C1.20001 6.99044 1.95858 5.15909 3.30884 3.80883C4.65911 2.45857 6.49045 1.7 8.40001 1.7H18C19.9096 1.7 21.7409 2.45857 23.0912 3.80883C24.4414 5.15909 25.2 6.99044 25.2 8.9V16.1C25.2 18.0096 24.4414 19.8409 23.0912 21.1912C21.7409 22.5414 19.9096 23.3 18 23.3H8.40001C6.49045 23.3 4.65911 22.5414 3.30884 21.1912C1.95858 19.8409 1.20001 18.0096 1.20001 16.1Z" stroke="white" stroke-width="1.5"/>
<path d="M18.4284 12.5C19.2852 12.5 21 12.5 21 10.1C21 7.7 19.2852 7.7 18.4284 7.7H15V12.5M18.4284 12.5H15M18.4284 12.5C19.2852 12.5 21 12.5 21 14.9C21 17.3 19.2852 17.3 18.4284 17.3H15V12.5M8.82842 7.7H5.40002V17.3H8.82842C9.68522 17.3 11.4 17.3 11.4 14.9V10.1C11.4 7.7 9.68522 7.7 8.82842 7.7Z" stroke="white" stroke-width="1.5" stroke-linecap="round" stroke-linejoin="round"/>
</g>
<defs>
<clipPath id="clip0_0_619">
<rect width="26.4" height="24" fill="white" transform="translate(0 0.5)"/>
</clipPath>
</defs>
</svg>
