<svg width="28" height="24" viewBox="0 0 28 24" fill="none" xmlns="http://www.w3.org/2000/svg">
<g clip-path="url(#clip0_9_91)">
<path d="M11.0909 5.45453H27.4545M1.27271 18.5454H17.6363" stroke="currentColor" stroke-linecap="round"/>
<path d="M1.27276 5.45453C1.27276 8.16575 3.47064 10.3636 6.18185 10.3636C8.89307 10.3636 11.0909 8.16575 11.0909 5.45453C11.0909 2.74332 8.89307 0.545441 6.18185 0.545441C3.47064 0.545441 1.27276 2.74332 1.27276 5.45453Z" stroke="currentColor" stroke-linecap="round"/>
<path d="M17.6363 18.5454C17.6363 21.2567 19.8342 23.4545 22.5454 23.4545C25.2566 23.4545 27.4545 21.2567 27.4545 18.5454C27.4545 15.8342 25.2566 13.6364 22.5454 13.6364C19.8342 13.6364 17.6363 15.8342 17.6363 18.5454Z" stroke="currentColor" stroke-linecap="round"/>
</g>
<defs>
<clipPath id="clip0_9_91">
<rect width="27.2727" height="24" fill="white" transform="translate(0.727295)"/>
</clipPath>
</defs>
</svg>
