<svg width="21" height="26" viewBox="0 0 21 26" fill="none" xmlns="http://www.w3.org/2000/svg">
<g clip-path="url(#clip0_133_101)">
<mask id="path-1-outside-1_133_101" maskUnits="userSpaceOnUse" x="-0.180786" y="-0.976288" width="20" height="28" fill="currentColor">
<rect fill="white" x="-0.180786" y="-0.976288" width="20" height="28"/>
<path d="M17.7933 19.0024L15.9153 17.8331C16.3969 17.7634 16.8372 17.5221 17.1551 17.1535C17.3458 16.9304 17.4855 16.6684 17.5646 16.3858C17.6437 16.1032 17.6603 15.8067 17.6133 15.5171C17.278 13.4267 17.1093 11.3131 17.1089 9.19598V6.91812V6.9165C17.1089 3.11574 14.0169 0.0237122 10.2161 0.0237122C6.41536 0.0237122 3.32334 3.11574 3.32334 6.9165V9.19598C3.32334 11.3068 3.15386 13.4338 2.81895 15.5171C2.77236 15.8067 2.78919 16.1031 2.86829 16.3856C2.9474 16.6681 3.08688 16.9301 3.27712 17.1535C3.57716 17.5054 3.98505 17.7357 4.43024 17.8233L2.53837 19.0024C2.01116 19.3288 1.57634 19.7848 1.27539 20.3269C0.974444 20.869 0.817398 21.4792 0.81923 22.0993V25.57C0.81923 25.6775 0.861948 25.7807 0.937986 25.8567C1.01402 25.9327 1.11715 25.9755 1.22469 25.9755C1.33222 25.9755 1.43535 25.9327 1.51139 25.8567C1.58743 25.7807 1.63015 25.6775 1.63015 25.57V22.0993C1.63015 21.1132 2.12967 20.2123 2.96735 19.6909L6.20047 17.6757C6.69491 18.242 7.30426 18.6965 7.98798 19.009C8.67169 19.3215 9.41411 19.4848 10.1659 19.4881C10.9173 19.4848 11.6594 19.3215 12.343 19.0093C13.0265 18.6971 13.6358 18.2431 14.1304 17.6774L17.3635 19.6909C17.7739 19.9446 18.1124 20.2993 18.3466 20.721C18.5809 21.1428 18.7031 21.6176 18.7016 22.1001V25.57C18.7016 25.6775 18.7443 25.7807 18.8203 25.8567C18.8964 25.9327 18.9995 25.9755 19.107 25.9755C19.2146 25.9755 19.3177 25.9327 19.3937 25.8567C19.4698 25.7807 19.5125 25.6775 19.5125 25.57V22.1001C19.5148 21.4798 19.3579 20.8694 19.0569 20.327C18.7559 19.7847 18.3209 19.3286 17.7933 19.0024ZM16.5372 16.628C16.4231 16.7622 16.2812 16.87 16.1213 16.9438C15.9614 17.0176 15.7873 17.0556 15.6112 17.0554H14.6656L13.0016 16.019V13.8847C13.6347 13.4331 14.1508 12.8369 14.5071 12.1456C14.8634 11.4544 15.0495 10.6881 15.05 9.9104V8.55942C15.3436 8.96379 15.5022 9.45043 15.5033 9.95014C15.5038 10.038 15.5328 10.1234 15.586 10.1934C15.6391 10.2635 15.7135 10.3144 15.7981 10.3385C15.8826 10.3626 15.9727 10.3587 16.0548 10.3272C16.1369 10.2958 16.2066 10.2386 16.2534 10.1642L16.315 10.0629C16.3556 11.9304 16.5169 13.8036 16.8113 15.6444C16.8402 15.8184 16.8306 15.9967 16.7833 16.1666C16.7359 16.3365 16.6519 16.494 16.5372 16.628ZM6.07316 9.91121V9.04272C6.07316 7.8077 6.81677 6.68944 7.93502 6.19235C9.40854 7.08075 11.0969 7.54932 12.8175 7.54739H12.8184L13.1087 7.5555C13.5222 7.5555 13.905 7.66984 14.2448 7.85554C14.2448 7.86284 14.2407 7.86933 14.2407 7.87662V9.9104C14.2394 10.9931 13.8088 12.0311 13.0432 12.7966C12.2776 13.5622 11.2396 13.9929 10.1569 13.9942C9.07425 13.9933 8.03615 13.5629 7.2705 12.7974C6.50486 12.0319 6.07423 10.9939 6.07316 9.91121ZM4.8211 17.0554C4.64504 17.0554 4.47108 17.0172 4.31123 16.9434C4.15138 16.8696 4.00946 16.7619 3.89527 16.6279C3.78108 16.4939 3.69734 16.3367 3.64984 16.1672C3.60233 15.9977 3.5922 15.8198 3.62014 15.646C3.96072 13.5198 4.13426 11.3498 4.13426 9.19598V6.9165C4.13426 3.56255 6.86218 0.834628 10.2161 0.834628C13.5701 0.834628 16.298 3.56255 16.298 6.9165C16.298 7.52225 16.2112 8.11341 16.0458 8.66646C15.7973 8.09663 15.3884 7.61143 14.8688 7.27002C14.3493 6.92862 13.7417 6.74577 13.12 6.74377L12.8297 6.73566C10.98 6.73566 9.21303 6.16316 7.72175 5.0814C7.68404 5.04166 7.63856 5.0101 7.58814 4.98867C7.53773 4.96725 7.48344 4.95641 7.42866 4.95684C7.37388 4.95726 7.31977 4.96895 7.2697 4.99116C7.21962 5.01337 7.17464 5.04563 7.13755 5.08595C7.10046 5.12627 7.07206 5.17378 7.05409 5.22553C7.03613 5.27729 7.029 5.33218 7.03314 5.38681C7.03728 5.44143 7.0526 5.49462 7.07815 5.54308C7.1037 5.59154 7.13894 5.63423 7.18168 5.6685C6.59871 6.01833 6.1158 6.51257 5.77957 7.10349C5.44335 7.69441 5.26516 8.36204 5.26224 9.04191V9.9104C5.26294 10.6913 5.45068 11.4606 5.80974 12.154C6.1688 12.8475 6.68873 13.4448 7.32602 13.8961V16.0182L5.66365 17.0546L4.8211 17.0554ZM10.1667 18.6772C9.55235 18.6749 8.94507 18.5463 8.38249 18.2996C7.81991 18.0528 7.31404 17.6931 6.89624 17.2427L7.94637 16.5883C8.00381 16.5514 8.05086 16.5005 8.08308 16.4403C8.1153 16.3801 8.1316 16.3127 8.13045 16.2445H8.13775V14.364C8.75405 14.6445 9.43684 14.8051 10.1569 14.8051C10.8835 14.8051 11.5712 14.6413 12.1923 14.3567V16.2445H12.1996C12.1996 16.3799 12.2604 16.5121 12.3837 16.5883L13.4371 17.2443C13.019 17.6942 12.513 18.0535 11.9505 18.3C11.388 18.5464 10.7808 18.6748 10.1667 18.6772Z"/>
</mask>
<path d="M17.7933 19.0024L15.9153 17.8331C16.3969 17.7634 16.8372 17.5221 17.1551 17.1535C17.3458 16.9304 17.4855 16.6684 17.5646 16.3858C17.6437 16.1032 17.6603 15.8067 17.6133 15.5171C17.278 13.4267 17.1093 11.3131 17.1089 9.19598V6.91812V6.9165C17.1089 3.11574 14.0169 0.0237122 10.2161 0.0237122C6.41536 0.0237122 3.32334 3.11574 3.32334 6.9165V9.19598C3.32334 11.3068 3.15386 13.4338 2.81895 15.5171C2.77236 15.8067 2.78919 16.1031 2.86829 16.3856C2.9474 16.6681 3.08688 16.9301 3.27712 17.1535C3.57716 17.5054 3.98505 17.7357 4.43024 17.8233L2.53837 19.0024C2.01116 19.3288 1.57634 19.7848 1.27539 20.3269C0.974444 20.869 0.817398 21.4792 0.81923 22.0993V25.57C0.81923 25.6775 0.861948 25.7807 0.937986 25.8567C1.01402 25.9327 1.11715 25.9755 1.22469 25.9755C1.33222 25.9755 1.43535 25.9327 1.51139 25.8567C1.58743 25.7807 1.63015 25.6775 1.63015 25.57V22.0993C1.63015 21.1132 2.12967 20.2123 2.96735 19.6909L6.20047 17.6757C6.69491 18.242 7.30426 18.6965 7.98798 19.009C8.67169 19.3215 9.41411 19.4848 10.1659 19.4881C10.9173 19.4848 11.6594 19.3215 12.343 19.0093C13.0265 18.6971 13.6358 18.2431 14.1304 17.6774L17.3635 19.6909C17.7739 19.9446 18.1124 20.2993 18.3466 20.721C18.5809 21.1428 18.7031 21.6176 18.7016 22.1001V25.57C18.7016 25.6775 18.7443 25.7807 18.8203 25.8567C18.8964 25.9327 18.9995 25.9755 19.107 25.9755C19.2146 25.9755 19.3177 25.9327 19.3937 25.8567C19.4698 25.7807 19.5125 25.6775 19.5125 25.57V22.1001C19.5148 21.4798 19.3579 20.8694 19.0569 20.327C18.7559 19.7847 18.3209 19.3286 17.7933 19.0024ZM16.5372 16.628C16.4231 16.7622 16.2812 16.87 16.1213 16.9438C15.9614 17.0176 15.7873 17.0556 15.6112 17.0554H14.6656L13.0016 16.019V13.8847C13.6347 13.4331 14.1508 12.8369 14.5071 12.1456C14.8634 11.4544 15.0495 10.6881 15.05 9.9104V8.55942C15.3436 8.96379 15.5022 9.45043 15.5033 9.95014C15.5038 10.038 15.5328 10.1234 15.586 10.1934C15.6391 10.2635 15.7135 10.3144 15.7981 10.3385C15.8826 10.3626 15.9727 10.3587 16.0548 10.3272C16.1369 10.2958 16.2066 10.2386 16.2534 10.1642L16.315 10.0629C16.3556 11.9304 16.5169 13.8036 16.8113 15.6444C16.8402 15.8184 16.8306 15.9967 16.7833 16.1666C16.7359 16.3365 16.6519 16.494 16.5372 16.628ZM6.07316 9.91121V9.04272C6.07316 7.8077 6.81677 6.68944 7.93502 6.19235C9.40854 7.08075 11.0969 7.54932 12.8175 7.54739H12.8184L13.1087 7.5555C13.5222 7.5555 13.905 7.66984 14.2448 7.85554C14.2448 7.86284 14.2407 7.86933 14.2407 7.87662V9.9104C14.2394 10.9931 13.8088 12.0311 13.0432 12.7966C12.2776 13.5622 11.2396 13.9929 10.1569 13.9942C9.07425 13.9933 8.03615 13.5629 7.2705 12.7974C6.50486 12.0319 6.07423 10.9939 6.07316 9.91121ZM4.8211 17.0554C4.64504 17.0554 4.47108 17.0172 4.31123 16.9434C4.15138 16.8696 4.00946 16.7619 3.89527 16.6279C3.78108 16.4939 3.69734 16.3367 3.64984 16.1672C3.60233 15.9977 3.5922 15.8198 3.62014 15.646C3.96072 13.5198 4.13426 11.3498 4.13426 9.19598V6.9165C4.13426 3.56255 6.86218 0.834628 10.2161 0.834628C13.5701 0.834628 16.298 3.56255 16.298 6.9165C16.298 7.52225 16.2112 8.11341 16.0458 8.66646C15.7973 8.09663 15.3884 7.61143 14.8688 7.27002C14.3493 6.92862 13.7417 6.74577 13.12 6.74377L12.8297 6.73566C10.98 6.73566 9.21303 6.16316 7.72175 5.0814C7.68404 5.04166 7.63856 5.0101 7.58814 4.98867C7.53773 4.96725 7.48344 4.95641 7.42866 4.95684C7.37388 4.95726 7.31977 4.96895 7.2697 4.99116C7.21962 5.01337 7.17464 5.04563 7.13755 5.08595C7.10046 5.12627 7.07206 5.17378 7.05409 5.22553C7.03613 5.27729 7.029 5.33218 7.03314 5.38681C7.03728 5.44143 7.0526 5.49462 7.07815 5.54308C7.1037 5.59154 7.13894 5.63423 7.18168 5.6685C6.59871 6.01833 6.1158 6.51257 5.77957 7.10349C5.44335 7.69441 5.26516 8.36204 5.26224 9.04191V9.9104C5.26294 10.6913 5.45068 11.4606 5.80974 12.154C6.1688 12.8475 6.68873 13.4448 7.32602 13.8961V16.0182L5.66365 17.0546L4.8211 17.0554ZM10.1667 18.6772C9.55235 18.6749 8.94507 18.5463 8.38249 18.2996C7.81991 18.0528 7.31404 17.6931 6.89624 17.2427L7.94637 16.5883C8.00381 16.5514 8.05086 16.5005 8.08308 16.4403C8.1153 16.3801 8.1316 16.3127 8.13045 16.2445H8.13775V14.364C8.75405 14.6445 9.43684 14.8051 10.1569 14.8051C10.8835 14.8051 11.5712 14.6413 12.1923 14.3567V16.2445H12.1996C12.1996 16.3799 12.2604 16.5121 12.3837 16.5883L13.4371 17.2443C13.019 17.6942 12.513 18.0535 11.9505 18.3C11.388 18.5464 10.7808 18.6748 10.1667 18.6772Z" fill="currentColor"/>
<path d="M17.7933 19.0024L15.9153 17.8331C16.3969 17.7634 16.8372 17.5221 17.1551 17.1535C17.3458 16.9304 17.4855 16.6684 17.5646 16.3858C17.6437 16.1032 17.6603 15.8067 17.6133 15.5171C17.278 13.4267 17.1093 11.3131 17.1089 9.19598V6.91812V6.9165C17.1089 3.11574 14.0169 0.0237122 10.2161 0.0237122C6.41536 0.0237122 3.32334 3.11574 3.32334 6.9165V9.19598C3.32334 11.3068 3.15386 13.4338 2.81895 15.5171C2.77236 15.8067 2.78919 16.1031 2.86829 16.3856C2.9474 16.6681 3.08688 16.9301 3.27712 17.1535C3.57716 17.5054 3.98505 17.7357 4.43024 17.8233L2.53837 19.0024C2.01116 19.3288 1.57634 19.7848 1.27539 20.3269C0.974444 20.869 0.817398 21.4792 0.81923 22.0993V25.57C0.81923 25.6775 0.861948 25.7807 0.937986 25.8567C1.01402 25.9327 1.11715 25.9755 1.22469 25.9755C1.33222 25.9755 1.43535 25.9327 1.51139 25.8567C1.58743 25.7807 1.63015 25.6775 1.63015 25.57V22.0993C1.63015 21.1132 2.12967 20.2123 2.96735 19.6909L6.20047 17.6757C6.69491 18.242 7.30426 18.6965 7.98798 19.009C8.67169 19.3215 9.41411 19.4848 10.1659 19.4881C10.9173 19.4848 11.6594 19.3215 12.343 19.0093C13.0265 18.6971 13.6358 18.2431 14.1304 17.6774L17.3635 19.6909C17.7739 19.9446 18.1124 20.2993 18.3466 20.721C18.5809 21.1428 18.7031 21.6176 18.7016 22.1001V25.57C18.7016 25.6775 18.7443 25.7807 18.8203 25.8567C18.8964 25.9327 18.9995 25.9755 19.107 25.9755C19.2146 25.9755 19.3177 25.9327 19.3937 25.8567C19.4698 25.7807 19.5125 25.6775 19.5125 25.57V22.1001C19.5148 21.4798 19.3579 20.8694 19.0569 20.327C18.7559 19.7847 18.3209 19.3286 17.7933 19.0024ZM16.5372 16.628C16.4231 16.7622 16.2812 16.87 16.1213 16.9438C15.9614 17.0176 15.7873 17.0556 15.6112 17.0554H14.6656L13.0016 16.019V13.8847C13.6347 13.4331 14.1508 12.8369 14.5071 12.1456C14.8634 11.4544 15.0495 10.6881 15.05 9.9104V8.55942C15.3436 8.96379 15.5022 9.45043 15.5033 9.95014C15.5038 10.038 15.5328 10.1234 15.586 10.1934C15.6391 10.2635 15.7135 10.3144 15.7981 10.3385C15.8826 10.3626 15.9727 10.3587 16.0548 10.3272C16.1369 10.2958 16.2066 10.2386 16.2534 10.1642L16.315 10.0629C16.3556 11.9304 16.5169 13.8036 16.8113 15.6444C16.8402 15.8184 16.8306 15.9967 16.7833 16.1666C16.7359 16.3365 16.6519 16.494 16.5372 16.628ZM6.07316 9.91121V9.04272C6.07316 7.8077 6.81677 6.68944 7.93502 6.19235C9.40854 7.08075 11.0969 7.54932 12.8175 7.54739H12.8184L13.1087 7.5555C13.5222 7.5555 13.905 7.66984 14.2448 7.85554C14.2448 7.86284 14.2407 7.86933 14.2407 7.87662V9.9104C14.2394 10.9931 13.8088 12.0311 13.0432 12.7966C12.2776 13.5622 11.2396 13.9929 10.1569 13.9942C9.07425 13.9933 8.03615 13.5629 7.2705 12.7974C6.50486 12.0319 6.07423 10.9939 6.07316 9.91121ZM4.8211 17.0554C4.64504 17.0554 4.47108 17.0172 4.31123 16.9434C4.15138 16.8696 4.00946 16.7619 3.89527 16.6279C3.78108 16.4939 3.69734 16.3367 3.64984 16.1672C3.60233 15.9977 3.5922 15.8198 3.62014 15.646C3.96072 13.5198 4.13426 11.3498 4.13426 9.19598V6.9165C4.13426 3.56255 6.86218 0.834628 10.2161 0.834628C13.5701 0.834628 16.298 3.56255 16.298 6.9165C16.298 7.52225 16.2112 8.11341 16.0458 8.66646C15.7973 8.09663 15.3884 7.61143 14.8688 7.27002C14.3493 6.92862 13.7417 6.74577 13.12 6.74377L12.8297 6.73566C10.98 6.73566 9.21303 6.16316 7.72175 5.0814C7.68404 5.04166 7.63856 5.0101 7.58814 4.98867C7.53773 4.96725 7.48344 4.95641 7.42866 4.95684C7.37388 4.95726 7.31977 4.96895 7.2697 4.99116C7.21962 5.01337 7.17464 5.04563 7.13755 5.08595C7.10046 5.12627 7.07206 5.17378 7.05409 5.22553C7.03613 5.27729 7.029 5.33218 7.03314 5.38681C7.03728 5.44143 7.0526 5.49462 7.07815 5.54308C7.1037 5.59154 7.13894 5.63423 7.18168 5.6685C6.59871 6.01833 6.1158 6.51257 5.77957 7.10349C5.44335 7.69441 5.26516 8.36204 5.26224 9.04191V9.9104C5.26294 10.6913 5.45068 11.4606 5.80974 12.154C6.1688 12.8475 6.68873 13.4448 7.32602 13.8961V16.0182L5.66365 17.0546L4.8211 17.0554ZM10.1667 18.6772C9.55235 18.6749 8.94507 18.5463 8.38249 18.2996C7.81991 18.0528 7.31404 17.6931 6.89624 17.2427L7.94637 16.5883C8.00381 16.5514 8.05086 16.5005 8.08308 16.4403C8.1153 16.3801 8.1316 16.3127 8.13045 16.2445H8.13775V14.364C8.75405 14.6445 9.43684 14.8051 10.1569 14.8051C10.8835 14.8051 11.5712 14.6413 12.1923 14.3567V16.2445H12.1996C12.1996 16.3799 12.2604 16.5121 12.3837 16.5883L13.4371 17.2443C13.019 17.6942 12.513 18.0535 11.9505 18.3C11.388 18.5464 10.7808 18.6748 10.1667 18.6772Z" stroke="currentColor" stroke-width="0.4" mask="url(#path-1-outside-1_133_101)"/>
<path d="M3.8352 21.4525C3.78128 21.5017 3.73758 21.561 3.7066 21.6271C3.6756 21.6932 3.65795 21.7648 3.65465 21.8378C3.65134 21.9107 3.66246 21.9836 3.68735 22.0523C3.71225 22.1209 3.75044 22.184 3.79974 22.2378L3.79983 22.238C4.14792 22.6177 4.34077 23.1142 4.34021 23.6293V23.6295V25.57C4.34021 25.7173 4.39873 25.8586 4.5029 25.9628C4.60707 26.0669 4.74835 26.1255 4.89567 26.1255C5.04298 26.1255 5.18427 26.0669 5.28843 25.9628C5.3926 25.8586 5.45112 25.7173 5.45112 25.57V23.6295C5.45112 22.8346 5.15569 22.0744 4.61963 21.4873L4.61941 21.487C4.51993 21.3785 4.38144 21.314 4.23439 21.3075C4.08737 21.3011 3.9438 21.3532 3.8352 21.4525ZM3.8352 21.4525C3.83517 21.4525 3.83514 21.4526 3.83511 21.4526L3.93635 21.5633L3.83529 21.4524C3.83526 21.4525 3.83523 21.4525 3.8352 21.4525ZM3.9104 22.1366C4.28389 22.544 4.49081 23.0768 4.49021 23.6295L3.9104 22.1366ZM15.8839 21.3556C15.818 21.3884 15.7594 21.434 15.7113 21.4897L15.8236 21.5892C15.314 22.1465 15.0316 22.8744 15.0321 23.6295H14.8821V23.6296V25.57C14.8821 25.7173 14.9406 25.8586 15.0448 25.9628C15.149 26.0669 15.2903 26.1255 15.4376 26.1255C15.5849 26.1255 15.7262 26.0669 15.8303 25.9628C15.9345 25.8586 15.993 25.7173 15.993 25.57V23.6295C15.993 23.1139 16.1844 22.6202 16.5314 22.2385C16.5824 22.1856 16.6225 22.1231 16.6492 22.0546C16.6763 21.9852 16.6892 21.9111 16.687 21.8366C16.6849 21.7622 16.6678 21.6889 16.6367 21.6212C16.6057 21.5535 16.5614 21.4927 16.5064 21.4425L16.5064 21.4425C16.4514 21.3923 16.3868 21.3536 16.3166 21.3289C16.2464 21.3041 16.1719 21.2937 16.0975 21.2983C16.0232 21.3029 15.9505 21.3224 15.8839 21.3556Z" fill="currentColor" stroke="currentColor" stroke-width="0.3"/>
</g>
<defs>
<clipPath id="clip0_133_101">
<rect width="19.9333" height="26" fill="white" transform="translate(0.199951)"/>
</clipPath>
</defs>
</svg>
