<svg width="18" height="18" viewBox="0 0 18 18" fill="none" xmlns="http://www.w3.org/2000/svg">
<g clip-path="url(#clip0_10_104)">
<path d="M3.31204 15.966C4.64404 17.055 6.30004 17.775 8.10004 17.955V16.137C6.78604 15.975 5.58904 15.453 4.59004 14.679M9.90004 16.137V17.955C11.7 17.775 13.356 17.055 14.688 15.966L13.401 14.679C12.411 15.453 11.214 15.975 9.90004 16.137ZM14.679 13.41L15.966 14.697C17.055 13.365 17.775 11.7 17.955 9.90001H16.137C15.975 11.214 15.453 12.411 14.679 13.41ZM11.7 9.00001C11.7 8.28393 11.4156 7.59717 10.9092 7.09082C10.4029 6.58448 9.71613 6.30001 9.00004 6.30001C8.28396 6.30001 7.5972 6.58448 7.09085 7.09082C6.58451 7.59717 6.30004 8.28393 6.30004 9.00001C6.30004 9.7161 6.58451 10.4029 7.09085 10.9092C7.5972 11.4155 8.28396 11.7 9.00004 11.7C9.71613 11.7 10.4029 11.4155 10.9092 10.9092C11.4156 10.4029 11.7 9.7161 11.7 9.00001ZM1.86304 9.90001H0.0450439C0.225044 11.7 0.945044 13.356 2.03404 14.688L3.32104 13.401C2.54704 12.411 2.02504 11.214 1.86304 9.90001ZM3.32104 4.59001L2.03404 3.31201C0.945044 4.64401 0.225044 6.30001 0.0450439 8.10001H1.86304C2.02504 6.78601 2.54704 5.58901 3.32104 4.59001ZM16.137 8.10001H17.955C17.775 6.30001 17.055 4.64401 15.966 3.31201L14.679 4.59001C15.453 5.58901 15.975 6.78601 16.137 8.10001ZM14.688 2.03401C13.356 0.945014 11.7 0.225013 9.90004 0.0450134V1.86301C11.214 2.02501 12.411 2.54701 13.41 3.32101M8.10004 1.86301V0.0450134C6.30004 0.225013 4.64404 0.945014 3.31204 2.03401L4.59004 3.32101C5.58904 2.54701 6.78604 2.02501 8.10004 1.86301Z" fill="white"/>
</g>
<defs>
<clipPath id="clip0_10_104">
<rect width="18" height="18" fill="white"/>
</clipPath>
</defs>
</svg>
