<svg width="24" height="26" viewBox="0 0 24 26" fill="none" xmlns="http://www.w3.org/2000/svg">
<path d="M23.6015 16.2871L21.2555 13.941V10.8331C21.2528 8.6854 20.4538 6.61494 19.0131 5.02212C17.5724 3.4293 15.5922 2.42728 13.4555 2.2098V0.433136H11.7221V2.2098C9.58544 2.42728 7.60527 3.4293 6.16453 5.02212C4.72379 6.61494 3.92483 8.6854 3.92214 10.8331V13.941L1.57608 16.2871C1.41353 16.4496 1.32219 16.67 1.32214 16.8998V19.4998C1.32214 19.7297 1.41345 19.9501 1.57598 20.1126C1.73852 20.2752 1.95896 20.3665 2.18881 20.3665H8.25548V21.0399C8.23662 22.1394 8.62416 23.2071 9.34382 24.0386C10.0635 24.87 11.0647 25.4067 12.1555 25.5457C12.758 25.6054 13.3663 25.5384 13.9413 25.3489C14.5164 25.1595 15.0454 24.8517 15.4943 24.4455C15.9433 24.0394 16.3023 23.5437 16.5482 22.9904C16.7941 22.4372 16.9215 21.8386 16.9221 21.2331V20.3665H22.9888C23.2187 20.3665 23.4391 20.2752 23.6016 20.1126C23.7642 19.9501 23.8555 19.7297 23.8555 19.4998V16.8998C23.8554 16.67 23.7641 16.4496 23.6015 16.2871ZM15.1888 21.2331C15.1888 21.9227 14.9149 22.584 14.4273 23.0716C13.9397 23.5592 13.2784 23.8331 12.5888 23.8331C11.8992 23.8331 11.2379 23.5592 10.7503 23.0716C10.2627 22.584 9.98881 21.9227 9.98881 21.2331V20.3665H15.1888V21.2331ZM22.1221 18.6331H3.05548V17.2586L5.40154 14.9125C5.56409 14.75 5.65543 14.5296 5.65548 14.2998V10.8331C5.65548 8.9943 6.38595 7.23078 7.6862 5.93053C8.98645 4.63028 10.75 3.8998 12.5888 3.8998C14.4276 3.8998 16.1912 4.63028 17.4914 5.93053C18.7917 7.23078 19.5221 8.9943 19.5221 10.8331V14.2998C19.5222 14.5296 19.6135 14.75 19.7761 14.9125L22.1221 17.2586V18.6331Z" fill="currentColor"/>
</svg>
