<svg width="32" height="26" viewBox="0 0 32 26" fill="none" xmlns="http://www.w3.org/2000/svg">
<path d="M12.1333 11.0673C10.6935 11.0673 9.46689 10.5606 8.45346 9.5472C7.44004 8.53262 6.93333 7.30599 6.93333 5.86733C6.93333 4.42635 7.44004 3.19973 8.45346 2.18746C9.46689 1.17404 10.6935 0.667328 12.1333 0.667328C13.5732 0.667328 14.7998 1.17404 15.8132 2.18746C16.8266 3.19973 17.3333 4.42635 17.3333 5.86733C17.3333 7.30715 16.8266 8.53377 15.8132 9.5472C14.7998 10.5606 13.5732 11.0673 12.1333 11.0673ZM0 21.8001V20.7463C0 19.9489 0.201067 19.2591 0.6032 18.6767C1.00533 18.0943 1.57329 17.6309 2.30707 17.2865C3.71338 16.6024 5.1636 16.0391 6.65773 15.5965C8.15071 15.154 9.97591 14.9327 12.1333 14.9327H12.5407C12.647 14.9327 12.7758 14.9396 12.9272 14.9535C12.807 15.2516 12.7117 15.5434 12.6412 15.8288L12.4401 16.666H12.1333C10.1932 16.666 8.50142 16.8653 7.05813 17.264C5.61484 17.6615 4.30676 18.1757 3.13387 18.8067C2.60693 19.084 2.24178 19.3752 2.0384 19.6803C1.83502 19.9842 1.73333 20.3395 1.73333 20.7463V21.866H12.6533C12.7377 22.1399 12.8411 22.4345 12.9636 22.75C13.0861 23.0632 13.2207 23.3463 13.3675 23.5993H1.7992C1.29076 23.5993 0.863778 23.4266 0.518267 23.0811C0.172756 22.7356 0 22.3097 0 21.8001ZM22.8072 23.8125L22.646 22.4328C22.1664 22.3334 21.714 22.1653 21.2888 21.9284C20.8624 21.6915 20.4793 21.3911 20.1396 21.0271L18.8171 21.5817C18.6414 21.6534 18.4785 21.6563 18.3283 21.5904C18.178 21.5234 18.0573 21.4194 17.966 21.2784L17.8533 21.0739C17.762 20.9271 17.7285 20.7624 17.7528 20.5799C17.7771 20.3973 17.8597 20.254 18.0007 20.15L19.1204 19.3267C18.9286 18.8332 18.8327 18.3248 18.8327 17.8013C18.8327 17.2756 18.9286 16.7659 19.1204 16.2725L18.0336 15.3833C17.8938 15.2793 17.806 15.143 17.7701 14.9743C17.7355 14.8067 17.7632 14.6496 17.8533 14.5028L17.9764 14.2861C18.0677 14.1475 18.1925 14.044 18.3508 13.9759C18.508 13.91 18.6744 13.9123 18.85 13.9828L20.1396 14.5392C20.4574 14.1752 20.8347 13.8805 21.2715 13.6552C21.7083 13.4299 22.1664 13.2669 22.646 13.1664L22.8072 11.7763C22.8268 11.5948 22.9048 11.4475 23.0412 11.3343C23.1787 11.2222 23.3382 11.1661 23.5196 11.1661H23.7467C23.9292 11.1661 24.0887 11.2239 24.2251 11.3395C24.3614 11.455 24.44 11.6041 24.4608 11.7867L24.5873 13.1664C25.0669 13.2669 25.5251 13.4316 25.9619 13.6604C26.3987 13.8892 26.776 14.1891 27.0937 14.56L28.3625 14.0036C28.5451 13.9262 28.7127 13.9204 28.8652 13.9863C29.0177 14.0521 29.1402 14.159 29.2327 14.3069L29.38 14.5149C29.4713 14.6605 29.499 14.8188 29.4632 14.9899C29.4285 15.1609 29.3407 15.299 29.1997 15.4041L28.1129 16.2933C28.3048 16.7729 28.4007 17.2784 28.4007 17.81C28.4007 18.3416 28.3048 18.8471 28.1129 19.3267L29.2327 20.15C29.3736 20.254 29.4563 20.3956 29.4805 20.5747C29.5036 20.7538 29.4701 20.9167 29.38 21.0635L29.2569 21.2801C29.1656 21.42 29.0466 21.5234 28.8999 21.5904C28.7531 21.6574 28.5919 21.6551 28.4163 21.5835L27.0937 21.0271C26.754 21.3911 26.3709 21.6915 25.9445 21.9284C25.5181 22.1653 25.0657 22.3334 24.5873 22.4328L24.4608 23.8229C24.44 24.0055 24.3614 24.1528 24.2251 24.2649C24.0887 24.377 23.9292 24.4331 23.7467 24.4331H23.5213C23.3388 24.4331 23.1787 24.3753 23.0412 24.2597C22.9037 24.1442 22.8257 23.9951 22.8072 23.8125ZM23.5993 20.9335C24.4637 20.9335 25.2021 20.6272 25.8145 20.0148C26.427 19.4024 26.7332 18.664 26.7332 17.7996C26.7332 16.9352 26.427 16.1968 25.8145 15.5844C25.2021 14.972 24.4637 14.6657 23.5993 14.6657C22.735 14.6657 21.9966 14.972 21.3841 15.5844C20.7717 16.1968 20.4655 16.9352 20.4655 17.7996C20.4655 18.664 20.7717 19.4024 21.3841 20.0148C21.9966 20.6272 22.735 20.9335 23.5993 20.9335ZM12.1333 9.33399C13.0867 9.33399 13.9031 8.99426 14.5825 8.31479C15.262 7.63533 15.6012 6.81951 15.6 5.86733C15.6 4.91399 15.2603 4.09759 14.5808 3.41813C13.9013 2.73866 13.0855 2.39951 12.1333 2.40066C11.18 2.40066 10.3636 2.73982 9.68413 3.41813C9.00466 4.09644 8.66551 4.91284 8.66667 5.86733C8.66667 6.82066 9.0064 7.63648 9.68587 8.31479C10.3653 8.99311 11.1812 9.33284 12.1333 9.33399Z" fill="currentColor"/>
</svg>
