<svg width="27" height="25" viewBox="0 0 27 25" fill="none" xmlns="http://www.w3.org/2000/svg">
<g clip-path="url(#clip0_0_607)">
<path fill-rule="evenodd" clip-rule="evenodd" d="M16.0909 6.77273C15.7292 6.77273 15.3824 6.9164 15.1266 7.17213C14.8709 7.42786 14.7272 7.77471 14.7272 8.13637C14.7272 8.49803 14.8709 8.84487 15.1266 9.1006C15.3824 9.35634 15.7292 9.5 16.0909 9.5C16.4525 9.5 16.7994 9.35634 17.0551 9.1006C17.3109 8.84487 17.4545 8.49803 17.4545 8.13637C17.4545 7.77471 17.3109 7.42786 17.0551 7.17213C16.7994 6.9164 16.4525 6.77273 16.0909 6.77273ZM13.0909 8.13637C13.0909 7.34072 13.407 6.57766 13.9696 6.01505C14.5322 5.45244 15.2952 5.13637 16.0909 5.13637C16.8865 5.13637 17.6496 5.45244 18.2122 6.01505C18.7748 6.57766 19.0909 7.34072 19.0909 8.13637C19.0909 8.93202 18.7748 9.69508 18.2122 10.2577C17.6496 10.8203 16.8865 11.1364 16.0909 11.1364C15.2952 11.1364 14.5322 10.8203 13.9696 10.2577C13.407 9.69508 13.0909 8.93202 13.0909 8.13637Z" fill="white"/>
<path fill-rule="evenodd" clip-rule="evenodd" d="M11.6651 0.772728H11.7895C14.3084 0.772728 16.2818 0.772728 17.8222 0.980001C19.3975 1.19164 20.6411 1.63455 21.6175 2.60982C22.5938 3.58618 23.0356 4.82982 23.2473 6.40618C23.4545 7.94546 23.4545 9.91891 23.4545 12.4378V12.5622C23.4545 15.0811 23.4545 17.0545 23.2473 18.5949C23.0356 20.1702 22.5927 21.4138 21.6175 22.3902C20.6411 23.3665 19.3975 23.8084 17.8211 24.02C16.2818 24.2273 14.3084 24.2273 11.7895 24.2273H11.6651C9.14618 24.2273 7.17273 24.2273 5.63236 24.02C4.05709 23.8084 2.81345 23.3655 1.83709 22.3902C0.860727 21.4138 0.418909 20.1702 0.207273 18.5938C6.50233e-08 17.0545 0 15.0811 0 12.5622V12.4378C0 9.91891 6.50233e-08 7.94546 0.207273 6.40509C0.418909 4.82982 0.861818 3.58618 1.83709 2.60982C2.81345 1.63346 4.05709 1.19164 5.63345 0.980001C7.17273 0.772728 9.14618 0.772728 11.6651 0.772728ZM2.99455 21.2327C2.37273 20.6109 2.016 19.7709 1.82836 18.3756C1.66145 17.1309 1.63964 15.5425 1.63636 13.4164L3.26727 11.9895C3.59007 11.7068 4.00825 11.5574 4.43708 11.5716C4.8659 11.5858 5.2733 11.7625 5.57673 12.0658L10.2567 16.7458C10.756 17.2453 11.4155 17.5527 12.1192 17.6138C12.8228 17.6748 13.5254 17.4857 14.1033 17.0796L14.4284 16.8505C14.8829 16.531 15.4325 16.3751 15.9871 16.4084C16.5418 16.4417 17.0687 16.6622 17.4818 17.0338L20.9978 20.1996C21.0357 20.233 21.0762 20.2633 21.1189 20.2902C20.9558 20.6403 20.7329 20.9593 20.46 21.2327C19.8382 21.8545 18.9982 22.2113 17.6029 22.3989C16.1847 22.5887 14.3215 22.5909 11.7273 22.5909C9.13309 22.5909 7.26982 22.5887 5.85164 22.3989C4.45636 22.2113 3.61636 21.8535 2.99455 21.2327ZM5.85164 2.60109C4.45636 2.78873 3.61527 3.14655 2.99345 3.76727C2.37273 4.38909 2.016 5.22909 1.82836 6.62436C1.67018 7.80255 1.64291 9.28618 1.63745 11.2422L2.19055 10.7578C2.82586 10.202 3.64866 9.90849 4.4923 9.93665C5.33594 9.9648 6.13734 10.3125 6.73418 10.9095L11.4142 15.5895C11.6412 15.8161 11.9409 15.9555 12.2606 15.983C12.5802 16.0106 12.8993 15.9245 13.1618 15.74L13.4869 15.5109C14.2446 14.9784 15.1606 14.7188 16.085 14.7745C17.0095 14.8302 17.8877 15.1979 18.576 15.8175L21.6022 18.5415L21.6262 18.3756C21.816 16.9575 21.8182 15.0942 21.8182 12.5C21.8182 9.90582 21.816 8.04255 21.6262 6.62436C21.4385 5.22909 21.0807 4.388 20.46 3.76618C19.8382 3.14546 18.9982 2.78873 17.6029 2.60109C16.1847 2.41127 14.3215 2.40909 11.7273 2.40909C9.13309 2.40909 7.26982 2.41127 5.85164 2.60109Z" fill="white"/>
</g>
<defs>
<clipPath id="clip0_0_607">
<rect width="24" height="24" fill="white" transform="translate(0 0.5)"/>
</clipPath>
</defs>
</svg>
