<svg width="27" height="25" viewBox="0 0 27 25" fill="none" xmlns="http://www.w3.org/2000/svg">
<g clip-path="url(#clip0_0_626)">
<path d="M24.0286 4.18571C23.8571 4.01429 23.6857 3.92857 23.4286 3.92857H20V1.35714C20 1.1 19.9143 0.928571 19.7429 0.757143C19.5714 0.585714 19.4 0.5 19.1429 0.5H7.14286C6.88571 0.5 6.71429 0.585714 6.54286 0.757143C6.37143 0.928571 6.28571 1.1 6.28571 1.35714V3.92857H2.85714C2.6 3.92857 2.42857 4.01429 2.25714 4.18571C2.08571 4.35714 2 4.61429 2 4.78571C2.08571 7.7 2.68571 9.75714 3.71429 10.7857C4.63571 11.7071 5.79179 12.2763 7.13348 12.4462C7.42571 12.9937 7.79723 13.4975 8.25714 13.9571C9.35161 15.0516 10.6946 15.7108 12.2857 15.883V19.3571H9.71429C9.45714 19.3571 9.28571 19.4429 9.11429 19.6143C8.94286 19.7857 8.85714 19.9571 8.85714 20.2143C8.85714 20.4714 8.94286 20.6429 9.11429 20.8143C9.28571 20.9857 9.45714 21.0714 9.71429 21.0714H16.5714C16.8286 21.0714 17 20.9857 17.1714 20.8143C17.3429 20.6429 17.4286 20.4714 17.4286 20.2143C17.4286 19.9571 17.3429 19.7857 17.1714 19.6143C17 19.4429 16.8286 19.3571 16.5714 19.3571H14V15.8552C15.5911 15.6487 16.9341 15.0513 18.0286 13.9571C18.4893 13.4964 18.8726 12.9913 19.1753 12.4424C20.4859 12.268 21.5865 11.7004 22.5714 10.7857C23.6 9.75714 24.2 7.78571 24.2857 4.78571C24.2857 4.61429 24.2 4.35714 24.0286 4.18571ZM6.28571 10.5286C5.77143 10.3571 5.34286 10.0143 4.91429 9.58571C4.31429 8.98571 3.97143 7.7 3.8 5.64286H6.28571V10.5286ZM16.7429 12.6714C15.7143 13.6143 14.6 14.2143 13.1429 14.2143C11.6857 14.2143 10.4857 13.7 9.54286 12.6714C8.6 11.6429 8 10.5286 8 9.07143V2.21429H18.2857V9.07143C18.2857 10.5286 17.7714 11.7286 16.7429 12.6714ZM21.3714 9.58571C20.9429 10.0143 20.5143 10.2714 20 10.5286V5.64286H22.4857C22.3143 7.7 21.9714 8.98571 21.3714 9.58571ZM20 22.7857H6.28571C6.02857 22.7857 5.85714 22.8714 5.68571 23.0429C5.51429 23.2143 5.42857 23.3857 5.42857 23.6429C5.42857 23.9 5.51429 24.0714 5.68571 24.2429C5.85714 24.4143 6.02857 24.5 6.28571 24.5H20C20.2571 24.5 20.4286 24.4143 20.6 24.2429C20.7714 24.0714 20.8571 23.9 20.8571 23.6429C20.8571 23.3857 20.7714 23.2143 20.6 23.0429C20.4286 22.8714 20.2571 22.7857 20 22.7857Z" fill="white"/>
</g>
<defs>
<clipPath id="clip0_0_626">
<rect width="22.2857" height="24" fill="white" transform="translate(2 0.5)"/>
</clipPath>
</defs>
</svg>
