<svg width="25" height="26" viewBox="0 0 25 26" fill="none" xmlns="http://www.w3.org/2000/svg">
<g clip-path="url(#clip0_133_165)">
<path d="M14.7926 3.46601C14.7671 3.56116 14.7606 3.66039 14.7735 3.75803C14.7864 3.85568 14.8184 3.94984 14.8676 4.03513C14.9169 4.12042 14.9825 4.19518 15.0606 4.25512C15.1388 4.31507 15.228 4.35904 15.3231 4.38451C15.4183 4.40999 15.5175 4.41648 15.6151 4.4036C15.7128 4.39073 15.8069 4.35875 15.8922 4.30949C15.9775 4.26023 16.0523 4.19465 16.1122 4.1165C16.1722 4.03835 16.2161 3.94916 16.2416 3.85401L16.8886 1.43901C16.9141 1.34381 16.9206 1.24451 16.9077 1.1468C16.8948 1.04909 16.8628 0.954877 16.8134 0.86954C16.7641 0.784203 16.6985 0.709414 16.6203 0.649442C16.5421 0.58947 16.4528 0.54549 16.3576 0.520014C16.2624 0.494538 16.1631 0.488063 16.0654 0.500961C15.9677 0.513858 15.8735 0.545875 15.7881 0.595183C15.6158 0.694765 15.4901 0.858732 15.4386 1.05101L14.7926 3.46601ZM22.0466 2.22001C22.1871 2.36064 22.266 2.55126 22.266 2.75001C22.266 2.94876 22.1871 3.13939 22.0466 3.28001L19.5466 5.78001C19.4775 5.85168 19.3947 5.90885 19.3032 5.9482C19.2118 5.98755 19.1134 6.00829 19.0138 6.0092C18.9142 6.01011 18.8154 5.99118 18.7232 5.95351C18.631 5.91585 18.5473 5.8602 18.4768 5.78981C18.4064 5.71942 18.3506 5.63571 18.3129 5.54356C18.2751 5.4514 18.2561 5.35265 18.2569 5.25307C18.2577 5.15348 18.2784 5.05506 18.3177 4.96354C18.3569 4.87202 18.414 4.78923 18.4856 4.72001L20.9856 2.22001C21.1262 2.07956 21.3169 2.00067 21.5156 2.00067C21.7144 2.00067 21.905 2.07956 22.0456 2.22001H22.0466ZM7.44661 22.704C8.06234 23.7301 9.04269 24.486 10.1917 24.8206C11.3406 25.1551 12.5735 25.0437 13.6439 24.5085C14.7142 23.9733 15.5431 23.0539 15.9648 21.934C16.3866 20.8141 16.3701 19.5763 15.9186 18.468L19.7456 16.555C20.1353 16.3602 20.4732 16.0755 20.7313 15.7245C20.9894 15.3734 21.1605 14.9661 21.2303 14.536C21.3001 14.1059 21.2667 13.6654 21.1329 13.2507C20.9991 12.8361 20.7687 12.4592 20.4606 12.151L12.1166 3.80601C11.8085 3.49795 11.4315 3.26752 11.0169 3.1337C10.6022 2.99989 10.1617 2.96652 9.73161 3.03634C9.30153 3.10617 8.89419 3.27719 8.54316 3.53532C8.19213 3.79345 7.90746 4.13129 7.71261 4.52101L0.557612 18.83C0.299687 19.3463 0.21073 19.9306 0.303338 20.5003C0.395947 21.0699 0.665426 21.596 1.07361 22.004L2.26361 23.194C2.67172 23.602 3.19785 23.8713 3.7675 23.9638C4.33714 24.0562 4.92143 23.9671 5.43761 23.709L7.44661 22.704ZM8.79561 22.03L14.5706 19.142C14.8439 19.8917 14.8319 20.7156 14.5368 21.457C14.2418 22.1983 13.6843 22.8052 12.9706 23.1621C12.257 23.5189 11.437 23.6007 10.6669 23.392C9.89675 23.1832 9.23035 22.6984 8.79461 22.03H8.79561ZM9.05361 5.19201C9.14217 5.01483 9.27157 4.86124 9.43115 4.74388C9.59072 4.62653 9.7759 4.54878 9.97142 4.51704C10.1669 4.4853 10.3672 4.50048 10.5557 4.56133C10.7442 4.62217 10.9155 4.72695 11.0556 4.86701L19.3996 13.211C19.5397 13.3511 19.6445 13.5224 19.7053 13.7109C19.7661 13.8994 19.7813 14.0997 19.7496 14.2952C19.7178 14.4907 19.6401 14.6759 19.5227 14.8355C19.4054 14.9951 19.2518 15.1244 19.0746 15.213L4.76661 22.368C4.53196 22.4854 4.26632 22.5259 4.00734 22.4839C3.74835 22.4419 3.50915 22.3195 3.32361 22.134L2.13361 20.944C1.9481 20.7585 1.82568 20.5193 1.78368 20.2603C1.74168 20.0013 1.78224 19.7357 1.89961 19.501L9.05461 5.19101L9.05361 5.19201ZM19.7666 8.75201C19.7666 8.5531 19.8456 8.36233 19.9863 8.22168C20.1269 8.08103 20.3177 8.00201 20.5166 8.00201H23.0166C23.2155 8.00201 23.4063 8.08103 23.5469 8.22168C23.6876 8.36233 23.7666 8.5531 23.7666 8.75201C23.7666 8.95092 23.6876 9.14169 23.5469 9.28234C23.4063 9.423 23.2155 9.50201 23.0166 9.50201H20.5166C20.3177 9.50201 20.1269 9.423 19.9863 9.28234C19.8456 9.14169 19.7666 8.95092 19.7666 8.75201Z" fill="currentColor"/>
</g>
<defs>
<clipPath id="clip0_133_165">
<rect width="24" height="26" fill="currentColor" transform="translate(0.266602)"/>
</clipPath>
</defs>
</svg>
