<svg width="27" height="25" viewBox="0 0 27 25" fill="none" xmlns="http://www.w3.org/2000/svg">
<g clip-path="url(#clip0_0_596)">
<path d="M10 12.5C10 12.283 10.0862 12.0749 10.2396 11.9215C10.3931 11.768 10.6012 11.6818 10.8182 11.6818H12.1818V10.3182C12.1818 10.1012 12.268 9.89308 12.4215 9.73964C12.5749 9.5862 12.783 9.5 13 9.5C13.217 9.5 13.4251 9.5862 13.5785 9.73964C13.732 9.89308 13.8182 10.1012 13.8182 10.3182V11.6818H15.1818C15.3988 11.6818 15.6069 11.768 15.7604 11.9215C15.9138 12.0749 16 12.283 16 12.5C16 12.717 15.9138 12.9251 15.7604 13.0785C15.6069 13.232 15.3988 13.3182 15.1818 13.3182H13.8182V14.6818C13.8182 14.8988 13.732 15.1069 13.5785 15.2604C13.4251 15.4138 13.217 15.5 13 15.5C12.783 15.5 12.5749 15.4138 12.4215 15.2604C12.268 15.1069 12.1818 14.8988 12.1818 14.6818V13.3182H10.8182C10.6012 13.3182 10.3931 13.232 10.2396 13.0785C10.0862 12.9251 10 12.717 10 12.5Z" fill="white"/>
<path fill-rule="evenodd" clip-rule="evenodd" d="M13 0.77272C6.52325 0.77272 1.27271 6.02327 1.27271 12.5C1.27271 18.9767 6.52325 24.2273 13 24.2273C19.4767 24.2273 24.7273 18.9767 24.7273 12.5C24.7273 6.02327 19.4767 0.77272 13 0.77272ZM12.1818 2.44181C9.79612 2.63621 7.55717 3.67214 5.86465 5.36467C4.17213 7.05719 3.1362 9.29613 2.9418 11.6818H5.36361C5.58061 11.6818 5.78872 11.768 5.94216 11.9215C6.0956 12.0749 6.1818 12.283 6.1818 12.5C6.1818 12.717 6.0956 12.9251 5.94216 13.0785C5.78872 13.232 5.58061 13.3182 5.36361 13.3182H2.9418C3.1362 15.7039 4.17213 17.9428 5.86465 19.6353C7.55717 21.3278 9.79612 22.3638 12.1818 22.5582V20.1364C12.1818 19.9194 12.268 19.7113 12.4214 19.5578C12.5749 19.4044 12.783 19.3182 13 19.3182C13.217 19.3182 13.4251 19.4044 13.5785 19.5578C13.732 19.7113 13.8182 19.9194 13.8182 20.1364V22.5582C16.2038 22.3638 18.4428 21.3278 20.1353 19.6353C21.8278 17.9428 22.8638 15.7039 23.0582 13.3182H20.6363C20.4193 13.3182 20.2112 13.232 20.0578 13.0785C19.9044 12.9251 19.8182 12.717 19.8182 12.5C19.8182 12.283 19.9044 12.0749 20.0578 11.9215C20.2112 11.768 20.4193 11.6818 20.6363 11.6818H23.0582C22.8638 9.29613 21.8278 7.05719 20.1353 5.36467C18.4428 3.67214 16.2038 2.63621 13.8182 2.44181V4.86363C13.8182 5.08063 13.732 5.28873 13.5785 5.44217C13.4251 5.59561 13.217 5.68181 13 5.68181C12.783 5.68181 12.5749 5.59561 12.4214 5.44217C12.268 5.28873 12.1818 5.08063 12.1818 4.86363V2.44181Z" fill="white"/>
</g>
<defs>
<clipPath id="clip0_0_596">
<rect width="24" height="24" fill="white" transform="translate(1 0.5)"/>
</clipPath>
</defs>
</svg>
